{
  "asset": {
    "version": "2.0",
    "generator": "THREE.GLTFExporter"
  },
  "scenes": [
    {
      "name": "Scene",
      "nodes": [
        0,
        1,
        2,
        3
      ]
    }
  ],
  "scene": 0,
  "nodes": [
    {
      "name": "Pupils",
      "mesh": 0
    },
    {
      "name": "Skin",
      "mesh": 1
    },
    {
      "name": "Eyes",
      "mesh": 2
    },
    {
      "name": "Tongue",
      "mesh": 3
    }
  ],
  "bufferViews": [
    {
      "buffer": 0,
      "byteOffset": 0,
      "byteLength": 8640,
      "target": 34962,
      "byteStride": 12
    },
    {
      "buffer": 0,
      "byteOffset": 8640,
      "byteLength": 8640,
      "target": 34962,
      "byteStride": 12
    },
    {
      "buffer": 0,
      "byteOffset": 17280,
      "byteLength": 319104,
      "target": 34962,
      "byteStride": 12
    },
    {
      "buffer": 0,
      "byteOffset": 336384,
      "byteLength": 319104,
      "target": 34962,
      "byteStride": 12
    },
    {
      "buffer": 0,
      "byteOffset": 655488,
      "byteLength": 54720,
      "target": 34962,
      "byteStride": 12
    },
    {
      "buffer": 0,
      "byteOffset": 710208,
      "byteLength": 54720,
      "target": 34962,
      "byteStride": 12
    },
    {
      "buffer": 0,
      "byteOffset": 764928,
      "byteLength": 27648,
      "target": 34962,
      "byteStride": 12
    },
    {
      "buffer": 0,
      "byteOffset": 792576,
      "byteLength": 27648,
      "target": 34962,
      "byteStride": 12
    }
  ],
  "buffers": [
    {
      "byteLength": 820224,
      "uri": "data:application/octet-stream;base64,"
    }
  ],
  "accessors": [
    {
      "bufferView": 0,
      "componentType": 5126,
      "count": 720,
      "max": [
        0.09326399862766266,
        0.23310500383377075,
        0.3246249854564667
      ],
      "min": [
        -0.08535599708557129,
        0.2064570039510727,
        0.31503498554229736
      ],
      "type": "VEC3"
    },
    {
      "bufferView": 1,
      "componentType": 5126,
      "count": 720,
      "max": [
        0.48539999127388,
        0.623199999332428,
        0.9990000128746033
      ],
      "min": [
        -0.48539999127388,
        -0.20550000667572021,
        0.7583000063896179
      ],
      "type": "VEC3"
    },
    {
      "bufferView": 2,
      "componentType": 5126,
      "count": 26592,
      "max": [
        0.34544500708580017,
        0.4295690059661865,
        0.8141049742698669
      ],
      "min": [
        -0.3375360071659088,
        -0.4884999990463257,
        -0.7523850202560425
      ],
      "type": "VEC3"
    },
    {
      "bufferView": 3,
      "componentType": 5126,
      "count": 26592,
      "max": [
        0.9998999834060669,
        0.9969000220298767,
        1
      ],
      "min": [
        -0.9998999834060669,
        -0.9998999834060669,
        -0.9997000098228455
      ],
      "type": "VEC3"
    },
    {
      "bufferView": 4,
      "componentType": 5126,
      "count": 4560,
      "max": [
        0.16062599420547485,
        0.29281699657440186,
        0.32299500703811646
      ],
      "min": [
        -0.1527159959077835,
        0.13264399766921997,
        0.0795150026679039
      ],
      "type": "VEC3"
    },
    {
      "bufferView": 5,
      "componentType": 5126,
      "count": 4560,
      "max": [
        0.9961000084877014,
        0.9950000047683716,
        0.968999981880188
      ],
      "min": [
        -0.9961000084877014,
        -0.9980000257492065,
        -0.9968000054359436
      ],
      "type": "VEC3"
    },
    {
      "bufferView": 6,
      "componentType": 5126,
      "count": 2304,
      "max": [
        0.18151399493217468,
        -0.08130799978971481,
        0.14557500183582306
      ],
      "min": [
        -0.1736059933900833,
        -0.31867700815200806,
        -0.1501549929380417
      ],
      "type": "VEC3"
    },
    {
      "bufferView": 7,
      "componentType": 5126,
      "count": 2304,
      "max": [
        0.9904999732971191,
        0.9977999925613403,
        0.9954000115394592
      ],
      "min": [
        -0.9904999732971191,
        -0.9980000257492065,
        -0.9998999834060669
      ],
      "type": "VEC3"
    }
  ],
  "materials": [
    {
      "pbrMetallicRoughness": {
        "baseColorFactor": [
          0,
          0,
          0,
          1
        ],
        "metallicFactor": 0,
        "roughnessFactor": 0
      }
    },
    {
      "pbrMetallicRoughness": {
        "baseColorFactor": [
          0.9568627450980393,
          0.6431372549019608,
          0.7529411764705882,
          1
        ],
        "metallicFactor": 0,
        "roughnessFactor": 0
      }
    },
    {
      "pbrMetallicRoughness": {
        "metallicFactor": 0,
        "roughnessFactor": 0
      }
    },
    {
      "pbrMetallicRoughness": {
        "baseColorFactor": [
          1,
          0.25098039215686274,
          0.07450980392156863,
          1
        ],
        "metallicFactor": 0,
        "roughnessFactor": 0
      }
    }
  ],
  "meshes": [
    {
      "primitives": [
        {
          "mode": 4,
          "attributes": {
            "POSITION": 0,
            "NORMAL": 1
          },
          "material": 0
        }
      ]
    },
    {
      "primitives": [
        {
          "mode": 4,
          "attributes": {
            "POSITION": 2,
            "NORMAL": 3
          },
          "material": 1
        }
      ]
    },
    {
      "primitives": [
        {
          "mode": 4,
          "attributes": {
            "POSITION": 4,
            "NORMAL": 5
          },
          "material": 2
        }
      ]
    },
    {
      "primitives": [
        {
          "mode": 4,
          "attributes": {
            "POSITION": 6,
            "NORMAL": 7
          },
          "material": 3
        }
      ]
    }
  ]
}