<?xml version="1.0" encoding="UTF-8" standalone="no"?>
<!-- Created with Inkscape (http://www.inkscape.org/) -->
<svg xmlns:svg="http://www.w3.org/2000/svg" xmlns="http://www.w3.org/2000/svg" xmlns:dc="http://purl.org/dc/elements/1.1/" xmlns:cc="http://web.resource.org/cc/" xmlns:rdf="http://www.w3.org/1999/02/22-rdf-syntax-ns#" version="1.0" width="395.646" height="400.57101" viewBox="0 0 395.646 400.571" id="Layer_1" xml:space="preserve"><defs id="defs84"/>

<g id="g5">
	<path d="M 145.689,119.096 C 139.571,111.433 136.62,103.35 135.776,93.788 C 135.143,83.876 138.166,70.871 141.329,62.365 C 144.283,53.788 149.203,50.766 153.07,43.806 C 156.655,36.495 159.327,27.708 162.982,20.396 C 166.567,12.944 170.011,6.337 174.09,0.009 L 174.09,0.009 C 170.785,7.18 171.347,14.069 176.549,20.958 C 181.751,27.707 195.881,31.854 204.316,40.712 C 212.543,49.57 221.33,62.926 225.266,73.471 C 228.71,83.734 227.516,90.554 226.533,101.802 C 225.475,112.979 220.765,132.452 219.713,140.115 C 218.379,147.427 217.463,147.779 219.713,146.302 C 221.822,144.474 228.151,138.5 232.72,130.837 C 237.006,123.244 240.804,109.044 246.285,101.241 C 251.701,93.227 258.025,87.884 266.042,83.315 C 273.985,78.535 284.317,75.793 293.807,73.473 C 303.228,71.013 313.213,71.716 321.578,69.115 C 329.591,66.444 336.268,62.437 341.893,57.375 L 341.893,57.375 C 336.901,64.616 333.317,73.122 331.417,83.948 C 329.521,94.493 331.84,109.467 330.223,120.996 C 328.325,132.384 327.553,142.859 320.311,152.42 C 312.859,161.981 301.332,170.065 285.726,177.727 L 285.726,177.727 C 297.042,176.884 307.237,178.43 316.584,182.648 C 325.723,186.655 334.23,193.966 341.329,202.402 C 348.221,210.697 352.79,223.211 358.553,232.068 C 364.247,240.714 371.631,246.759 375.845,254.285 C 379.854,261.663 379.221,269.044 382.665,275.863 C 385.971,282.4 390.19,288.376 395.602,293.789 L 395.602,293.789 C 381.121,293.721 367.272,294.143 353,295.62 C 338.45,296.882 323.896,302.016 310.47,301.806 C 296.9,301.173 282.91,296.745 273.422,293.16 C 264.073,289.503 257.605,285.636 254.303,280.784 L 254.303,280.784 C 256.549,291.33 255.915,302.225 252.403,313.473 C 248.677,324.72 239.33,337.235 232.72,348.062 C 225.759,358.749 218.798,368.238 212.966,377.093 C 207.273,385.813 202.631,393.616 198.764,400.504 L 198.764,400.504 C 198.693,391.575 196.514,381.805 191.945,370.907 C 187.235,359.659 175.916,346.094 171.558,335.124 C 167.129,324.159 165.371,314.671 166.006,306.093 L 166.006,306.093 C 162.068,312.981 155.39,318.534 145.69,322.752 C 135.848,326.971 120.312,325.709 108.009,331.402 C 95.496,337.023 83.615,344.968 71.594,356.074 L 71.594,356.074 C 73.001,342.791 73.844,328.446 74.688,312.279 C 75.251,296.039 70.329,274.036 75.953,259.837 C 81.647,245.634 91.981,235.02 108.009,227.708 L 108.009,227.708 C 91.981,227.289 78.484,223.28 66.674,215.408 C 54.934,207.323 48.678,194.529 37.641,180.82 C 26.463,167.181 14.02,151.646 0.031,133.93 L 0.031,133.93 C 13.95,128.517 28.784,122.964 45.093,117.27 C 61.261,111.364 79.891,99.062 96.903,99.343 C 113.844,99.553 129.731,106.231 145.689,119.096 L 145.689,119.096 z " style="fill-rule:evenodd;stroke:#000000;stroke-width:0.036;stroke-miterlimit:10" id="path7"/>
	<path d="M 183.017,177.303 C 177.675,167.813 172.331,158.674 166.427,149.886 C 160.522,140.817 154.969,131.398 147.868,124.298 C 140.627,117.128 132.542,111.575 123.334,107.919 C 113.773,104.053 101.893,101.521 92.332,102.225 C 82.842,102.999 75.671,108.059 66.462,111.996 C 56.972,115.652 46.989,119.659 36.515,123.736 C 25.9,127.532 15.285,131.257 3.826,134.913 L 3.826,134.913 C 8.255,140.326 13.879,146.864 20.698,155.299 C 27.376,163.736 37.428,175.546 44.388,184.474 C 51.207,193.12 55.566,200.642 61.822,206.759 C 67.798,212.663 72.789,216.672 81.154,219.834 C 89.52,222.717 99.432,224.543 111.664,224.754 L 111.664,224.754 C 123.193,218.567 133.527,213.648 143.228,209.219 C 153.07,204.787 162.068,201.344 169.379,198.884 C 176.198,196.353 181.19,194.807 184.354,194.244 L 184.354,194.244 C 181.682,191.08 180.135,188.339 179.996,185.457 C 179.784,182.505 180.698,179.976 183.017,177.303 L 183.017,177.303 z " style="fill:#408000;fill-rule:evenodd;stroke:#000000;stroke-width:0.036;stroke-miterlimit:10" id="path9"/>
	<path d="M 177.815,182.014 C 174.371,180.608 170.574,179.342 167.2,177.937 C 163.756,176.53 159.959,174.984 156.584,173.578 L 156.584,173.578 C 153.28,165.494 148.289,158.042 141.329,150.66 C 134.159,142.998 125.09,134.913 115.179,129.43 C 105.196,123.948 93.315,119.94 82.489,118.534 C 71.452,117.128 60.838,117.761 49.87,120.713 L 49.87,120.713 C 59.572,118.956 68.921,118.604 78.693,119.94 C 88.393,121.206 99.29,124.65 107.585,128.377 C 115.74,131.751 121.645,136.179 127.48,140.608 C 132.893,144.827 136.689,148.552 141.047,153.966 C 145.336,159.519 152.155,170.205 153.35,173.016 C 154.194,175.265 150.397,171.821 146.811,169.221 C 143.086,166.62 138.095,162.541 131.275,158.043 C 124.175,153.332 115.178,146.373 105.124,141.733 C 94.79,136.812 81.082,132.172 70.818,129.992 C 60.625,127.603 52.259,127.884 44.104,128.657 C 35.739,129.429 28.217,131.328 21.258,134.632 L 21.258,134.632 C 30.045,131.962 38.411,130.415 47.409,130.274 C 56.197,129.992 64.913,130.907 73.841,133.016 C 82.699,135.124 92.401,137.936 100.766,142.014 C 109.061,145.881 116.583,150.942 123.613,155.581 C 130.432,159.939 139.431,165.845 141.891,168.376 C 144.282,170.907 145.546,171.751 137.814,170.063 C 129.588,167.884 108.007,160.432 93.948,156.425 C 79.747,152.419 66.952,149.255 53.947,146.373 C 40.801,143.28 28.71,140.539 16.619,138.148 L 16.619,138.148 C 19.712,139.905 27.163,142.365 39.255,145.81 C 51.417,149.114 71.734,153.824 88.535,158.324 C 105.055,162.753 128.885,169.713 137.533,172.735 C 145.617,175.476 142.806,174.844 138.588,175.757 C 134.088,176.742 122.419,178.007 112.225,177.937 C 101.821,177.514 89.027,176.249 77.92,173.578 C 66.672,170.625 54.51,164.649 46.848,161.346 C 39.115,157.971 32.507,153.613 32.718,154.246 C 33.069,154.808 40.38,160.784 47.902,164.579 C 55.072,168.446 66.531,173.437 75.459,176.319 C 83.965,178.71 90.855,179.06 99.924,179.835 C 108.78,180.538 121.223,180.818 129.097,180.396 C 136.759,179.623 142.665,176.53 146.812,176.038 C 150.89,175.264 153.49,176.601 153.843,177.373 C 153.983,177.936 152.717,179.201 148.429,181.169 C 143.719,183.208 134.65,187.215 127.199,189.395 C 119.606,191.293 111.242,192.558 104.282,192.91 C 97.111,193.262 91.206,192.98 85.512,191.785 L 85.512,191.785 C 81.224,187.216 78.694,184.685 77.92,184.193 C 77.216,183.701 80.099,187.145 80.309,188.552 C 80.099,189.817 78.833,190.73 77.357,191.293 C 75.6,191.503 74.966,191.856 70.537,190.168 C 65.969,188.059 59.431,184.895 50.642,179.835 L 50.642,179.835 C 56.336,185.317 62.523,189.395 69.201,192.066 C 75.809,194.597 82.98,195.159 90.431,195.651 C 97.602,196.143 104.21,196.214 112.716,195.088 C 121.222,193.542 132.752,190.448 140.485,187.707 C 147.795,184.966 153.068,180.537 156.864,179.271 C 160.379,177.936 160.379,179.2 162.84,179.834 C 165.3,180.326 169.026,181.239 171.275,182.293 C 173.173,183.207 176.267,184.473 174.861,185.808 C 173.455,186.933 170.08,186.933 162.84,189.886 C 155.247,193.049 139.57,200.22 130.713,203.525 C 121.996,206.194 117.286,207.178 110.045,207.601 C 102.242,208.021 92.259,207.67 85.511,206.545 C 78.833,205.351 73.841,203.173 70.256,200.29 L 70.256,200.29 C 70.819,202.54 72.435,204.436 75.95,205.984 C 79.184,207.319 83.824,208.654 90.15,209.218 C 96.617,209.569 106.038,209.92 113.841,209.218 C 121.433,208.375 127.338,207.109 135.071,204.649 C 142.733,201.835 152.434,196.211 158.762,193.752 C 164.595,191.151 168.041,191.502 171.274,190.167 C 174.438,188.55 176.618,186.37 178.094,185.527 C 179.36,184.753 179.36,186.019 179.429,185.527 C 179.362,184.967 178.729,183.701 177.815,182.014 L 177.815,182.014 z " style="fill-rule:evenodd;stroke:#000000;stroke-width:0.036;stroke-miterlimit:10" id="path11"/>
	<path d="M 184.634,175.336 C 180.345,166.83 176.268,159.659 172.121,152.488 C 167.973,145.177 163.615,138.921 160.1,133.437 C 156.303,127.884 152.86,124.79 149.767,120.362 C 146.392,115.792 143.228,112.418 141.33,106.443 C 139.292,100.257 138.097,91.187 138.589,83.595 C 139.08,75.721 141.542,66.02 144.353,60.185 C 147.166,54.351 151.523,52.242 154.406,48.164 C 156.725,43.735 157.358,39.306 159.328,34.315 C 161.295,28.972 164.81,21.941 166.638,17.864 C 168.326,13.717 169.521,11.186 169.943,9.991 L 169.943,9.991 C 169.169,14.56 170.435,18.919 173.738,22.785 C 177.184,26.723 184.354,29.534 189.836,33.4 C 194.968,37.056 199.961,39.797 204.809,45.14 C 209.519,50.272 214.58,58.426 218.096,64.472 C 221.613,70.306 223.79,73.118 224.915,80.5 C 225.618,87.812 224.984,96.599 223.298,107.987 C 221.472,119.234 218.027,138.004 215.427,147.495 C 212.753,156.844 210.293,161.765 207.764,163.311 L 207.764,163.311 C 206.076,163.242 204.531,162.679 203.123,161.624 C 201.715,160.429 200.453,158.812 199.328,156.492 L 199.328,156.492 C 198.412,160.71 197.498,163.803 195.811,165.771 C 194.124,167.739 191.593,166.123 189.835,167.951 C 187.938,169.501 186.11,171.961 184.634,175.336 L 184.634,175.336 z " style="fill:#408000;fill-rule:evenodd;stroke:#000000;stroke-width:0.036;stroke-miterlimit:10" id="path13"/>
	<path d="M 193.633,163.595 L 191.453,151.574 L 191.453,151.574 C 181.189,141.24 172.472,131.89 165.582,123.243 C 158.482,114.386 152.578,106.231 149.485,99.553 C 146.25,92.734 145.267,87.391 146.531,82.962 L 146.531,82.962 C 145.758,86.267 146.673,90.344 148.711,95.194 C 150.608,100.045 154.687,105.949 159.045,112.066 C 163.474,117.971 168.745,124.509 174.3,130.625 C 179.502,136.601 184.844,142.225 190.327,147.778 L 190.327,147.778 C 188.429,140.677 186.883,134.772 185.97,130.343 C 184.985,125.774 184.353,122.68 184.353,120.782 L 184.353,120.782 C 177.533,116.282 171.91,110.027 167.48,102.013 C 162.841,93.647 158.411,82.048 157.428,72.628 C 156.162,62.927 159.607,51.749 160.942,45.915 C 162.138,40.29 163.684,37.76 165.3,38.603 L 165.3,38.603 C 163.191,42.68 161.645,47.672 160.661,53.577 C 159.326,59.272 158.34,66.231 159.326,73.682 C 160.309,80.993 163.191,90.343 167.199,97.655 C 171.065,104.684 176.619,110.941 183.298,116.425 L 183.298,116.425 C 182.665,108.832 182.032,101.029 180.838,91.961 C 179.572,82.752 178.307,73.12 176.479,62.786 C 174.511,52.452 170.082,34.877 169.66,30.941 C 168.887,27.144 171.136,32.487 172.894,39.658 C 174.581,46.407 177.394,59.553 179.713,72.065 C 181.892,84.579 184.072,106.442 185.689,113.753 C 187.094,120.502 187.024,115.089 188.43,113.472 C 189.626,111.715 191.453,109.887 193.352,103.911 C 195.179,97.514 200.24,85.915 199.329,76.706 C 198.061,67.286 188.01,52.242 186.814,48.656 C 185.549,45.001 189.627,50.976 192.016,54.913 C 194.196,58.78 198.273,65.318 199.889,71.012 C 201.297,76.494 201.579,80.573 200.454,87.602 C 198.906,94.492 194.617,106.02 192.227,111.855 C 189.977,117.338 188.079,120.15 186.813,120.573 L 186.813,120.573 C 186.884,124.299 187.235,127.743 187.868,130.626 C 188.36,133.438 189.275,135.055 190.048,137.937 C 190.751,140.678 191.313,143.771 192.015,147.217 L 192.015,147.217 C 195.953,142.296 199.397,136.039 202.631,128.165 C 205.934,120.081 209.659,110.098 211.067,99.835 C 212.12,89.361 209.027,69.536 209.381,66.654 C 209.733,63.772 211.559,75.722 212.402,82.401 C 212.894,88.728 213.809,97.164 212.684,105.038 C 211.208,112.77 207.832,122.472 205.3,129.009 C 202.63,135.476 200.379,139.554 198.271,143.42 C 196.162,147.076 194.615,149.607 193.351,151.013 L 193.351,151.013 C 193.632,154.035 193.913,156.496 193.913,158.675 C 193.913,160.784 193.913,162.33 193.633,163.595 L 193.633,163.595 z " style="fill-rule:evenodd;stroke:#000000;stroke-width:0.036;stroke-miterlimit:10" id="path15"/>
	<path d="M 211.842,163.666 C 213.878,163.245 215.778,163.595 218.096,164.721 C 220.346,165.704 223.158,167.533 224.915,169.923 C 226.182,172.173 227.093,175.265 227.658,178.359 C 228.15,181.383 228.431,184.264 228.219,187.569 L 228.219,187.569 C 231.102,185.881 234.546,185.249 238.555,184.897 C 242.632,184.545 246.992,184.897 252.194,185.952 L 252.194,185.952 C 258.097,184.405 264.352,182.507 270.962,180.258 C 277.5,177.727 284.388,175.548 291.63,171.822 C 298.659,167.885 307.378,162.964 313.141,157.341 C 318.485,151.506 321.928,145.53 324.603,137.798 C 326.99,129.994 328.256,118.818 328.68,110.803 C 328.889,102.226 327.272,95.126 327.622,88.729 C 328.046,82.543 329.591,77.551 331.139,73.755 C 332.265,69.818 333.809,67.006 335.216,65.32 L 335.216,65.32 C 328.889,68.624 322.986,70.733 316.726,72.419 C 310.4,73.825 306.113,72.279 298.167,74.317 C 289.944,76.356 276.726,79.871 268.784,84.088 C 260.84,88.025 256.198,91.75 251.347,98.007 C 246.358,104.122 242.982,113.824 239.608,120.855 C 236.094,127.673 234.127,133.859 230.678,138.851 C 226.957,143.701 223.016,147.146 218.096,149.747 L 218.096,149.747 C 217.181,152.419 216.197,154.95 215.144,157.34 C 214.088,159.589 212.895,161.698 211.842,163.666 L 211.842,163.666 z " style="fill:#408000;fill-rule:evenodd;stroke:#000000;stroke-width:0.036;stroke-miterlimit:10" id="path17"/>
	<path d="M 227.939,169.36 C 233.279,165.985 237.078,163.173 239.329,160.924 C 241.437,158.393 240.381,159.447 241.015,155.441 C 241.296,151.223 240.381,143.701 242.068,136.671 C 243.756,129.289 250.084,113.542 250.787,112.98 C 250.996,112.559 245.934,127.673 244.532,133.648 C 243.124,139.412 242.773,143.139 242.633,147.286 C 242.35,151.292 242.35,154.315 242.915,157.127 L 242.915,157.127 C 245.024,155.581 247.202,153.823 249.729,151.082 C 252.194,148.34 254.722,145.177 257.605,141.311 L 257.605,141.311 C 256.481,133.085 258.026,125.002 261.965,117.338 C 265.828,109.324 274.337,100.888 281.016,94.984 C 287.412,89.079 294.23,85.986 301.191,82.47 C 308.221,78.885 315.391,75.792 322.985,73.472 L 322.985,73.472 C 311.806,78.182 302.454,82.822 294.933,87.391 C 287.271,91.819 282.35,95.546 277.499,100.467 C 272.369,105.176 268.36,110.8 265.477,115.722 C 262.457,120.362 260.908,125.352 260.066,129.078 C 259.082,132.592 259.364,136.319 260.066,137.513 C 260.347,138.568 259.433,139.622 263.299,135.826 C 267.236,131.608 274.688,122.47 283.475,113.823 C 291.912,105.036 309.764,88.445 314.265,84.649 C 318.484,80.852 314.757,85.844 309.345,91.748 C 303.652,97.373 289.871,110.237 281.293,119.235 C 272.72,128.023 265.198,136.739 258.448,145.105 L 258.448,145.105 C 259.012,146.441 261.541,146.441 266.32,145.386 C 271.03,144.332 279.398,142.785 286.495,138.567 C 293.388,133.787 302.808,124.438 308.01,118.672 C 312.999,113.189 315.815,108.409 316.443,105.105 L 316.443,105.105 C 317.501,106.159 316.935,108.69 315.04,111.923 C 312.859,115.087 308.782,120.36 304.426,124.999 C 299.926,129.427 294.022,135.402 289.171,139.128 C 284.388,142.643 280.943,144.19 275.601,145.947 C 269.769,147.494 263.583,148.478 255.706,148.9 L 255.706,148.9 C 252.895,151.852 250.084,154.664 246.992,157.616 C 243.898,160.429 240.804,163.17 237.43,165.842 L 237.43,165.842 C 239.465,166.685 244.741,166.124 253.245,164.436 C 261.965,162.468 277.007,161.554 288.112,155.157 C 298.73,148.479 308.429,138.848 317.216,125.491 L 317.216,125.491 C 316.232,128.935 314.332,132.661 311.239,136.949 C 308.077,141.308 304,146.369 298.729,150.798 C 293.246,154.946 286.357,158.602 278.832,161.483 C 270.892,163.873 259.995,165.209 252.685,166.334 C 245.232,167.459 239.678,167.81 235.247,167.951 L 235.247,167.951 C 232.86,168.376 230.399,168.868 227.939,169.36 L 227.939,169.36 z " style="fill-rule:evenodd;stroke:#000000;stroke-width:0.036;stroke-miterlimit:10" id="path19"/>
	<path d="M 254.58,187.919 C 259.642,187.005 264.635,185.74 269.554,184.404 C 274.478,182.928 279.117,181.382 283.757,179.484 L 283.757,179.484 C 291.205,178.992 298.098,179.976 304.986,181.663 C 311.737,183.351 318.274,185.881 324.319,190.1 C 330.223,194.247 335.918,200.435 340.628,206.48 C 345.056,212.384 348.783,219.905 351.808,225.248 C 354.549,230.241 355.461,232.769 358.626,237.201 C 361.788,241.556 368.115,247.815 371.14,251.892 C 373.878,255.9 375.077,257.376 376.343,261.171 C 377.325,264.898 377.325,269.89 378.521,273.685 C 379.646,277.061 381.614,278.956 383.65,282.121 C 385.691,285.283 387.869,288.309 390.469,291.962 L 390.469,291.962 C 378.31,291.821 366.781,292.172 355.11,293.297 C 343.371,294.354 330.297,297.165 321.296,298.221 C 312.231,299.205 310.331,299.838 301.471,298.499 C 292.265,296.604 275.742,292.172 267.661,288.167 C 259.434,284.09 257.324,278.815 252.966,274.811 C 248.469,270.734 244.11,267.29 241.509,263.915 C 238.839,260.398 236.866,256.954 236.374,253.862 L 236.374,253.862 C 239.892,251.119 242.424,248.026 243.968,244.864 C 245.162,241.42 245.727,237.622 245.375,234.251 C 245.162,230.802 243.899,227.431 242.634,224.688 C 241.157,221.805 239.258,219.272 236.656,217.095 L 236.656,217.095 C 240.665,217.728 244.109,217.167 247.271,215.97 C 250.364,214.494 252.896,211.401 255.146,209.15 C 257.255,206.691 259.083,204.863 260.348,202.613 C 261.26,200.503 261.542,197.692 262.244,196.357 C 263.017,194.88 263.651,193.897 264.704,193.686 L 264.704,193.686 C 261.752,193.123 259.574,192.492 257.889,191.506 C 256.197,190.449 255.004,189.255 254.58,187.919 L 254.58,187.919 z " style="fill:#408000;fill-rule:evenodd;stroke:#000000;stroke-width:0.036;stroke-miterlimit:10" id="path21"/>
	<path d="M 257.888,206.196 C 263.159,205.071 269.413,204.51 276.656,204.51 C 283.968,204.369 292.682,204.651 300.909,206.196 C 308.854,207.744 316.657,210.273 324.602,213.79 L 324.602,213.79 C 314.197,211.116 304.845,209.499 295.989,208.378 C 287.129,207.321 278.693,207.039 272.015,207.253 C 265.199,207.18 259.856,207.463 255.705,208.096 L 255.705,208.096 C 256.411,207.462 257.113,206.829 257.888,206.196 L 257.888,206.196 z " style="fill-rule:evenodd;stroke:#000000;stroke-width:0.036;stroke-miterlimit:10" id="path23"/>
	<path d="M 248.887,213.507 C 258.307,213.084 268.643,214.281 280.45,216.81 C 292.121,219.411 306.812,223.209 318.834,228.48 C 330.714,233.332 341.962,240.502 351.523,247.039 C 360.802,253.508 373.95,266.724 374.442,267.425 C 374.51,267.848 361.646,256.25 353.209,250.556 C 344.705,244.721 334.441,238.112 324.602,233.402 C 314.476,228.481 304.845,225.388 294.373,222.505 C 283.895,219.694 266.043,216.25 262.808,216.811 C 259.575,217.093 263.018,218.008 275.04,224.966 C 287.061,231.926 315.952,248.589 334.373,258.711 C 352.581,268.552 368.749,277.27 383.649,284.581 L 383.649,284.581 C 376.2,282.541 366.849,278.746 354.827,272.911 C 342.528,266.656 327.554,258.219 312.088,249.5 C 296.622,240.927 272.931,227.215 263.018,221.944 C 252.965,216.742 252.404,215.826 252.687,217.585 C 252.965,219.062 257.606,223.42 264.705,230.659 C 271.738,237.692 283.618,252.101 294.091,259.836 C 304.355,267.426 314.408,272.77 325.373,276.145 L 325.373,276.145 C 321.86,277.061 316.8,275.794 310.189,272.627 C 303.443,269.185 293.458,263.631 285.655,256.812 C 277.573,249.642 268.854,239.588 262.527,232.349 C 256.058,225.247 251.069,219.344 247.271,214.634 L 247.271,214.634 C 247.762,214.282 248.325,213.931 248.887,213.507 L 248.887,213.507 z " style="fill-rule:evenodd;stroke:#000000;stroke-width:0.036;stroke-miterlimit:10" id="path25"/>
	<path d="M 241.507,216.532 C 244.531,219.412 248.535,224.686 253.811,232.348 C 259.082,239.869 266.251,254.633 272.862,262.013 C 279.399,269.184 285.302,273.826 291.912,275.653 L 291.912,275.653 C 287.48,275.721 283.475,274.176 279.117,271.293 C 274.688,268.2 270.962,264.196 266.321,257.655 C 261.542,250.698 255.287,238.184 250.787,231.223 C 246.218,224.263 242.141,219.27 238.838,216.249 L 238.838,216.249 C 239.679,216.318 240.591,216.391 241.507,216.532 L 241.507,216.532 z " style="fill-rule:evenodd;stroke:#000000;stroke-width:0.036;stroke-miterlimit:10" id="path27"/>
	<path d="M 243.685,244.58 C 245.653,250.416 248.117,255.759 251.347,260.609 C 254.512,265.389 259.222,270.381 262.243,273.403 C 265.057,276.144 267.235,277.621 268.501,277.552 L 268.501,277.552 C 267.937,278.605 266.393,278.605 264.143,276.987 C 261.682,275.088 257.605,271.996 254.58,268.272 C 251.347,264.473 247.902,259.203 245.865,255.476 C 243.825,251.681 242.841,248.939 242.632,246.479 L 242.632,246.479 C 242.981,245.846 243.333,245.213 243.685,244.58 L 243.685,244.58 z " style="fill-rule:evenodd;stroke:#000000;stroke-width:0.036;stroke-miterlimit:10" id="path29"/>
	<path d="M 192.507,231.433 C 185.9,242.261 180.908,252.592 177.252,262.714 C 173.597,272.91 171.7,282.54 170.434,291.892 C 168.887,300.821 167.341,308.342 168.536,316.637 C 169.451,324.861 173.175,333.929 176.48,340.89 C 179.854,347.359 183.932,351.363 187.587,356.988 C 190.821,362.61 193.844,368.588 196.093,374.633 C 198.132,380.468 199.679,386.371 200.454,392.348 L 200.454,392.348 C 200.454,391.925 202.071,389.396 205.302,384.477 C 208.609,379.343 214.512,370.274 219.783,362.962 C 224.847,355.441 231.454,346.936 235.813,340.116 C 240.031,333.014 242.14,328.095 245.092,321.84 C 247.975,315.44 251.136,309.818 252.686,302.789 C 253.811,295.76 253.811,287.957 252.403,279.661 L 252.403,279.661 C 250.645,276.847 249.101,274.386 246.71,271.996 C 244.178,269.467 241.016,268.2 238.838,265.458 C 236.797,262.646 235.248,259.413 234.478,255.477 L 234.478,255.477 L 231.171,257.376 L 231.171,257.376 C 229.345,259.694 227.448,260.962 225.199,260.889 C 222.738,260.61 220.488,258.078 217.605,257.095 C 214.511,256.179 210.152,255.969 207.764,255.126 C 205.442,254.068 204.179,252.525 203.123,250.767 C 201.715,248.868 200.731,246.972 199.888,244.23 C 198.694,241.347 198.061,236.354 197.71,233.894 C 197.359,231.152 197.639,229.676 198.272,228.692 L 198.272,228.692 C 196.374,229.606 194.477,230.522 192.507,231.433 L 192.507,231.433 z " style="fill:#408000;fill-rule:evenodd;stroke:#000000;stroke-width:0.036;stroke-miterlimit:10" id="path31"/>
	<path d="M 200.945,245.072 C 194.546,252.876 189.555,260.328 185.97,268.2 C 182.243,276.003 180.697,282.189 179.431,291.328 C 178.096,300.115 176.83,312.629 177.814,321.275 C 178.517,329.921 180.697,336.741 184.071,342.507 L 184.071,342.507 C 181.329,335.195 179.783,327.041 179.431,317.48 C 178.939,307.709 179.852,294.843 181.891,285.355 C 183.861,275.862 188.218,267.78 191.733,261.38 C 195.107,254.984 198.834,249.991 202.629,246.689 L 202.629,246.689 C 202.07,246.197 201.506,245.632 200.945,245.072 L 200.945,245.072 z " style="fill-rule:evenodd;stroke:#000000;stroke-width:0.036;stroke-miterlimit:10" id="path33"/>
	<path d="M 208.325,258.36 C 208.325,261.453 208.042,264.196 207.481,266.583 C 206.917,268.833 206.006,270.732 205.022,272.277 L 205.022,272.277 C 200.098,274.669 196.655,279.028 193.632,285.355 C 190.75,291.678 188.008,300.749 187.586,309.608 C 186.883,318.182 187.797,327.251 190.047,337.095 L 190.047,337.095 C 188.5,326.969 187.867,318.323 188.711,310.1 C 189.414,301.663 192.226,293.436 194.405,288.374 C 196.373,283.314 198.835,281.838 200.662,279.87 C 202.347,277.829 203.545,276.285 204.53,275.793 L 204.53,275.793 C 204.808,278.112 204.808,284.016 204.808,294.352 C 204.67,304.474 204.106,323.597 203.964,336.53 C 203.614,349.254 203.686,362.401 203.403,371.12 C 202.839,379.624 201.577,387.497 201.786,387.989 C 201.997,388.202 203.895,381.944 204.807,373.298 C 205.44,364.301 206.074,348.061 206.424,335.97 C 206.565,323.666 206.847,310.802 206.987,301.172 C 207.129,291.188 206.214,281.839 207.198,277.972 C 207.761,274.035 209.657,275.863 211.556,278.536 C 213.383,281.278 216.758,286.832 218.658,294.07 C 220.413,301.03 222.03,310.379 222.172,320.504 C 222.172,330.486 220.555,341.451 218.094,353.683 L 218.094,353.683 C 220.627,347.989 222.454,341.452 223.296,333.297 C 223.998,325.073 223.998,313.826 223.014,305.249 C 221.962,296.389 219.43,287.742 217.041,282.049 C 214.509,276.427 211.698,272.984 208.323,271.717 L 208.323,271.717 C 209.238,267.99 209.871,264.825 210.222,262.224 C 210.572,259.487 210.572,257.304 210.5,255.687 L 210.5,255.687 L 208.039,254.844 L 208.039,254.844 C 208.115,255.968 208.185,257.163 208.325,258.36 L 208.325,258.36 z " style="fill-rule:evenodd;stroke:#000000;stroke-width:0.036;stroke-miterlimit:10" id="path35"/>
	<path d="M 222.245,257.655 C 225.475,263.421 227.658,270.099 229.836,278.254 C 231.876,286.34 233.143,297.865 233.913,306.024 C 234.336,313.964 234.054,320.504 232.788,325.918 L 232.788,325.918 C 235.109,323.386 236.304,318.675 236.372,311.787 C 236.163,304.475 234.969,292.945 233.069,284.231 C 231.17,275.585 228.642,267.781 225.198,260.54 L 225.198,260.54 C 224.214,259.623 223.229,258.639 222.245,257.655 L 222.245,257.655 z " style="fill-rule:evenodd;stroke:#000000;stroke-width:0.036;stroke-miterlimit:10" id="path37"/>
	<path d="M 185.197,195.722 C 178.87,196.847 170.153,199.728 159.046,204.652 C 147.587,209.572 128.536,218.92 118.202,224.545 C 107.869,229.816 103.861,231.716 97.745,236.777 C 91.558,241.697 84.95,246.971 81.435,254.211 C 77.779,261.239 76.866,268.341 76.232,279.306 C 75.389,290.203 77.287,306.16 77.076,318.534 C 76.795,330.555 75.53,341.174 74.054,351.155 L 74.054,351.155 C 81.786,344.194 88.676,338.573 95.846,334.564 C 102.736,330.555 108.992,328.027 115.741,326.41 C 122.49,324.583 129.731,324.227 136.127,322.893 C 142.384,321.134 147.938,320.013 153.07,316.565 C 158.062,312.98 162.489,307.992 166.357,301.591 L 166.357,301.591 C 167.833,290.626 169.379,281.557 171.276,273.334 C 173.035,264.897 174.3,259.978 177.252,252.876 C 180.065,245.633 183.791,238.817 188.43,231.365 L 188.43,231.365 C 185.126,231.784 182.878,231.784 181.119,230.8 C 179.222,229.748 179.573,227.357 178.097,225.813 C 176.268,224.123 173.105,223.07 172.121,221.594 C 171.276,220.046 172.262,218.993 172.894,216.811 C 173.174,214.21 172.191,210.483 174.862,207.532 C 177.604,204.511 182.314,201.838 189.274,199.236 L 189.274,199.236 C 187.938,198.112 186.603,196.917 185.197,195.722 L 185.197,195.722 z " style="fill:#408000;fill-rule:evenodd;stroke:#000000;stroke-width:0.036;stroke-miterlimit:10" id="path39"/>
	<path d="M 171.558,219.412 L 165.582,224.828 L 165.582,224.828 C 156.514,225.461 147.445,227.356 137.534,231.365 C 127.552,235.16 114.124,242.402 106.742,247.673 C 99.501,252.666 96.69,256.392 93.667,261.873 C 90.433,267.288 87.903,273.262 86.848,280.081 L 86.848,280.081 C 89.87,272.209 92.964,266.022 96.69,260.747 C 100.135,255.336 102.946,252.807 108.36,249.081 C 113.773,245.214 122.771,241.137 129.098,238.185 C 135.143,235.161 140.135,232.982 145.126,231.366 C 149.835,229.607 155.811,228.342 158.201,228.132 C 160.451,227.85 160.381,227.85 159.327,230.031 C 157.99,231.999 153.983,236.709 151.382,240.081 C 148.57,243.388 146.392,246.55 143.791,249.852 L 143.791,249.852 C 136.479,250.977 129.941,253.437 123.896,257.236 C 117.569,261.03 111.945,267.568 107.586,272.21 C 103.509,276.496 101.048,278.323 98.588,283.666 C 95.635,288.868 93.525,295.406 91.206,303.561 L 91.206,303.561 C 96.057,292.527 100.415,284.442 104.563,278.464 C 108.499,272.42 111.241,271.505 115.458,268.132 C 119.395,264.406 125.3,260.329 129.378,257.797 C 133.315,255.054 138.024,252.877 139.712,252.877 C 141.258,252.667 144.139,250.768 139.43,257.797 C 134.51,264.967 118.832,284.158 110.818,295.337 C 102.664,306.161 95.494,316.428 91.205,323.107 C 86.846,329.713 84.035,335.338 85.229,334.565 C 86.283,333.371 91.626,324.934 97.743,316.849 C 103.507,308.553 113.771,295.689 120.942,286.127 C 128.182,276.496 135.705,265.6 140.274,259.979 C 144.421,254.212 145.054,252.736 146.53,252.035 C 147.936,251.119 149.273,250.136 148.921,254.776 C 148.288,259.205 146.672,271.718 144.071,279.307 C 141.61,286.76 139.782,292.385 133.737,299.976 C 127.339,307.5 118.341,315.304 106.461,323.951 L 106.461,323.951 C 116.092,318.749 123.895,312.841 130.433,306.516 C 136.902,299.907 141.541,293.652 145.126,285.567 C 148.501,277.412 149.977,264.547 150.89,258.08 C 151.594,251.261 151.663,247.607 150.328,246.059 L 150.328,246.059 C 152.999,241.772 155.81,238.045 158.482,234.88 C 161.294,231.508 164.739,226.092 166.356,227.008 C 167.34,227.923 167.059,232.279 166.356,240.364 C 165.723,248.308 165.371,263.351 162.278,274.387 C 158.764,285.425 151.523,298.29 146.531,305.669 C 141.541,312.84 136.902,316.565 132.613,317.131 L 132.613,317.131 C 135.496,318.042 138.307,317.412 141.048,315.513 C 143.72,313.404 145.337,310.594 148.922,305.178 C 152.436,299.624 158.623,289.292 161.786,282.542 C 164.74,275.585 165.371,270.593 166.637,264.055 C 167.552,257.164 168.183,249.292 168.535,243.106 C 168.956,237.06 169.238,230.801 169.378,227.85 C 169.309,224.757 168.956,223.845 168.324,225.108 L 168.324,225.108 L 171.838,221.805 L 171.838,221.805 C 171.77,221.028 171.7,220.258 171.558,219.412 L 171.558,219.412 z " style="fill-rule:evenodd;stroke:#000000;stroke-width:0.036;stroke-miterlimit:10" id="path41"/>
	<path d="M 199.328,199.377 C 196.304,199.8 193.772,199.518 191.734,198.534 C 189.625,197.339 188.078,195.37 186.813,193.402 C 184.985,191.223 182.807,188.41 182.455,186.301 C 182.174,183.981 183.158,182.435 184.634,180.045 C 185.899,177.302 187.727,173.507 189.836,171.608 C 191.876,169.711 194.336,170.343 196.374,168.867 C 198.202,167.109 199.538,164.93 200.663,161.766 L 200.663,161.766 C 201.506,163.524 203.332,164.789 206.148,165.844 C 208.818,166.687 214.088,166.899 217.044,167.812 C 219.505,168.515 221.399,169.5 222.738,171.326 C 224.142,173.154 224.775,175.685 225.199,178.919 C 225.34,181.801 224.985,185.808 223.863,189.042 C 222.457,192.065 220.63,194.596 217.605,196.916 L 217.605,196.916 C 215.846,195.51 214.652,194.877 213.737,195.018 C 212.826,195.159 212.193,195.792 212.12,197.478 L 212.12,197.478 C 209.802,196.846 208.257,196.564 207.201,196.915 C 206.076,197.196 205.724,198.11 205.865,199.375 L 205.865,199.375 C 204.317,199.024 203.333,199.024 202.632,199.375 C 201.857,199.586 201.579,200.22 201.788,200.992 L 201.788,200.992 C 201.014,200.501 200.17,199.941 199.328,199.377 L 199.328,199.377 z " style="fill:#ffffff;fill-rule:evenodd;stroke:#000000;stroke-width:0.036;stroke-miterlimit:10" id="path43"/>
	<path d="M 201.506,203.454 C 200.453,202.47 198.905,201.837 196.866,201.558 C 194.616,200.924 191.804,200.572 188.993,201.276 C 186.181,201.909 182.385,204.72 180.277,206.478 C 177.957,208.305 176.41,210.204 175.637,212.172 C 174.794,213.93 175.426,214.842 175.356,216.531 C 175.074,218.076 174.723,219.269 174.302,220.887 L 174.302,220.887 C 176.693,221.803 178.59,222.786 179.996,224.121 C 181.19,225.46 180.839,227.005 182.456,228.198 C 184.073,229.045 186.252,229.675 188.994,229.323 C 191.454,228.762 194.267,226.935 197.148,224.965 C 199.821,222.646 202.349,220.116 205.023,216.531 L 205.023,216.531 C 202.631,215.898 201.365,214.983 201.224,214.072 C 201.087,213.084 201.647,212.1 203.687,210.837 L 203.687,210.837 C 201.716,209.361 200.732,208.164 200.454,207.531 C 200.1,206.688 200.454,206.337 201.788,206.478 L 201.788,206.478 C 201.715,205.494 201.646,204.51 201.506,203.454 L 201.506,203.454 z " style="fill:#ffffff;fill-rule:evenodd;stroke:#000000;stroke-width:0.036;stroke-miterlimit:10" id="path45"/>
	<path d="M 206.426,219.766 C 203.332,222.787 201.506,225.879 200.663,229.324 C 199.961,232.631 200.522,236.708 201.506,239.938 C 202.139,243.104 202.699,246.266 204.809,248.657 C 206.849,250.766 210.293,252.033 213.245,253.299 C 215.92,254.211 218.448,254.844 220.839,255.477 C 222.876,256.038 224.707,257.022 226.042,257.656 L 226.042,257.656 C 227.8,256.461 229.695,255.196 231.736,253.861 C 233.772,252.453 235.954,251.892 237.991,249.715 C 239.89,247.251 241.789,243.738 242.633,240.222 C 243.124,236.286 243.194,231.927 241.789,227.992 C 240.382,224.124 237.85,220.68 234.195,217.377 L 234.195,217.377 C 232.017,216.954 230.186,216.675 228.712,216.252 C 227.094,215.76 226.11,215.409 225.199,214.918 L 225.199,214.918 C 224.215,216.886 223.582,218.43 223.016,219.273 C 222.315,220.048 221.964,220.398 221.682,220.048 L 221.682,220.048 C 220.629,221.524 219.996,222.439 219.221,222.79 C 218.448,222.932 217.814,222.581 217.322,221.455 L 217.322,221.455 C 215.636,223 214.443,223.633 213.737,223.633 C 212.895,223.633 212.544,222.721 212.685,221.173 L 212.685,221.173 C 211.067,221.737 209.519,221.806 208.608,221.665 C 207.623,221.38 206.708,220.75 206.426,219.766 L 206.426,219.766 z " style="fill:#ffffff;fill-rule:evenodd;stroke:#000000;stroke-width:0.036;stroke-miterlimit:10" id="path47"/>
	<path d="M 218.939,198.534 C 219.431,197.55 220.697,196.284 222.456,194.738 C 224.142,193.12 226.601,190.591 229.553,189.325 C 232.228,188.129 236.304,187.216 239.608,187.145 C 242.982,186.724 246.636,187.076 249.451,187.919 C 252.053,188.833 253.319,191.012 255.145,192.277 C 256.831,193.472 258.38,194.105 259.783,194.738 L 259.783,194.738 C 259.433,197.971 258.167,201.064 256.271,204.018 C 254.089,207.039 250.717,210.132 248.043,212.172 C 245.301,213.79 243.405,214.422 239.89,214.632 C 236.094,214.632 231.662,214.422 226.041,213.224 L 226.041,213.224 C 226.957,211.328 227.307,209.781 227.093,208.869 C 226.742,207.885 225.831,207.251 224.355,207.251 L 224.355,207.251 C 225.549,205.001 225.832,203.453 225.476,202.61 C 225.126,201.557 223.863,201.202 221.964,201.557 L 221.964,201.557 C 222.456,200.149 222.456,199.234 221.964,198.813 C 221.33,198.394 220.415,198.042 218.939,198.534 L 218.939,198.534 z " style="fill:#ffffff;fill-rule:evenodd;stroke:#000000;stroke-width:0.036;stroke-miterlimit:10" id="path49"/>
	<path d="M 204.809,200.713 C 203.897,200.01 203.332,200.36 203.123,200.993 C 202.562,201.416 202.84,202.961 203.404,203.735 C 203.965,204.227 207.131,205.212 207.481,204.788 C 207.481,204.16 205.583,201.276 204.809,200.713 L 204.809,200.713 z " style="fill:#ff80c2;fill-rule:evenodd;stroke:#000000;stroke-width:0.036;stroke-miterlimit:10" id="path51"/>
	<path d="M 213.596,212.665 C 213.458,211.681 212.966,211.189 212.403,211.472 C 211.77,211.399 210.366,212.383 210.366,213.368 C 210.225,214.211 211.278,217.304 211.911,217.235 C 212.333,217.024 213.527,213.507 213.596,212.665 L 213.596,212.665 z " style="fill:#ff80c2;fill-rule:evenodd;stroke:#000000;stroke-width:0.036;stroke-miterlimit:10" id="path53"/>
	<path d="M 223.79,205.354 C 224.282,204.652 224.282,203.736 223.79,203.668 C 223.016,203.176 221.822,202.962 221.049,203.596 C 220.205,204.229 218.729,206.971 219.363,207.463 C 219.645,207.531 223.016,205.914 223.79,205.354 L 223.79,205.354 z " style="fill:#ff80c2;fill-rule:evenodd;stroke:#000000;stroke-width:0.036;stroke-miterlimit:10" id="path55"/>
	<path d="M 209.659,198.534 C 208.886,198.112 207.341,197.76 207.2,198.252 C 206.917,198.675 207.481,201.135 208.325,201.558 C 208.886,201.836 211.066,200.221 211.349,199.941 C 211.277,199.308 210.365,198.745 209.659,198.534 L 209.659,198.534 z " style="fill:#ff80c2;fill-rule:evenodd;stroke:#000000;stroke-width:0.036;stroke-miterlimit:10" id="path57"/>
	<path d="M 215.427,196.917 C 215.846,196.847 217.814,198.112 217.814,199.096 C 217.536,199.868 215.919,201.696 215.144,201.837 C 214.229,201.696 213.596,199.518 213.528,199.096 C 213.386,198.675 214.089,198.956 214.581,198.815 C 214.794,198.252 214.794,196.987 215.427,196.917 L 215.427,196.917 z " style="fill:#ff80c2;fill-rule:evenodd;stroke:#000000;stroke-width:0.036;stroke-miterlimit:10" id="path59"/>
	<path d="M 224.142,209.43 C 224.493,209.64 224.493,211.539 224.142,212.455 C 223.44,213.157 221.262,213.858 220.838,213.79 C 220.346,213.298 220.629,211.681 221.399,210.837 C 221.964,209.991 223.508,209.148 224.142,209.43 L 224.142,209.43 z " style="fill:#ff80c2;fill-rule:evenodd;stroke:#000000;stroke-width:0.036;stroke-miterlimit:10" id="path61"/>
	<path d="M 220.838,216.811 C 221.262,217.165 220.629,217.795 220.274,218.71 C 219.573,219.133 218.94,220.678 218.379,220.327 C 217.814,219.766 216.48,217.234 217.043,216.532 C 217.535,215.968 220.064,216.25 220.838,216.811 L 220.838,216.811 z " style="fill:#ff80c2;fill-rule:evenodd;stroke:#000000;stroke-width:0.036;stroke-miterlimit:10" id="path63"/>
	<path d="M 214.019,218.992 C 213.668,219.904 213.386,221.52 213.737,222.226 C 214.019,222.363 215.214,222.012 215.706,221.169 C 215.92,220.185 215.568,217.656 215.428,217.374 C 214.935,217.024 214.37,218.008 214.019,218.992 L 214.019,218.992 z " style="fill:#ff80c2;fill-rule:evenodd;stroke:#000000;stroke-width:0.036;stroke-miterlimit:10" id="path65"/>
	<path d="M 208.042,217.375 C 207.55,217.936 207.55,218.919 208.042,219.766 C 208.466,220.117 210.365,221.028 210.785,220.609 C 210.994,219.904 210.365,217.726 209.941,217.093 C 209.449,216.532 208.185,216.811 208.042,217.375 L 208.042,217.375 z " style="fill:#ff80c2;fill-rule:evenodd;stroke:#000000;stroke-width:0.036;stroke-miterlimit:10" id="path67"/>
	<path d="M 205.583,212.172 C 204.53,211.749 203.546,212.382 203.404,213.225 C 203.123,213.858 203.965,215.758 204.808,216.249 C 205.723,216.531 208.255,216.249 208.607,215.685 C 208.394,214.773 206.566,212.592 205.583,212.172 L 205.583,212.172 z " style="fill:#ff80c2;fill-rule:evenodd;stroke:#000000;stroke-width:0.036;stroke-miterlimit:10" id="path69"/>
	<path d="M 203.687,205.914 C 203.124,205.636 203.124,207.532 203.687,208.096 C 204.107,208.657 206.64,209.008 206.708,208.871 C 206.64,208.447 204.106,205.914 203.687,205.914 L 203.687,205.914 z " style="fill:#ff80c2;fill-rule:evenodd;stroke:#000000;stroke-width:0.036;stroke-miterlimit:10" id="path71"/>
	<path d="M 212.402,202.329 C 211.558,202.192 209.381,203.736 209.381,204.511 C 209.309,205.144 210.858,206.338 211.842,206.479 C 212.543,206.406 213.458,205.846 213.737,205.071 C 213.668,204.228 213.035,202.329 212.402,202.329 L 212.402,202.329 z " style="fill:#ff80c2;fill-rule:evenodd;stroke:#000000;stroke-width:0.036;stroke-miterlimit:10" id="path73"/>
	<path d="M 216.761,205.636 C 216.338,205.285 214.443,206.548 214.302,207.253 C 213.95,207.745 215.568,209.007 215.919,208.871 C 216.27,208.305 216.829,206.055 216.761,205.636 L 216.761,205.636 z " style="fill:#ff80c2;fill-rule:evenodd;stroke:#000000;stroke-width:0.036;stroke-miterlimit:10" id="path75"/>
	<path d="M 209.941,206.688 C 209.026,206.547 207.058,208.095 206.989,208.87 C 206.989,209.499 208.325,210.697 209.381,210.837 C 210.011,210.765 211.209,210.204 211.35,209.43 C 211.277,208.587 210.717,206.688 209.941,206.688 L 209.941,206.688 z " style="fill:#ff80c2;fill-rule:evenodd;stroke:#000000;stroke-width:0.036;stroke-miterlimit:10" id="path77"/>
	<path d="M 219.996,204.087 C 220.137,203.668 218.66,201.769 218.237,201.627 C 217.463,201.276 216.41,202.821 216.688,203.313 C 217.043,203.736 219.504,204.087 219.996,204.087 L 219.996,204.087 z " style="fill:#ff80c2;fill-rule:evenodd;stroke:#000000;stroke-width:0.036;stroke-miterlimit:10" id="path79"/>
	<path d="M 215.777,209.499 C 216.41,209.43 217.253,210.979 217.463,211.963 C 217.321,212.806 216.06,214.702 215.567,214.915 C 214.794,214.702 214.37,213.157 214.301,212.172 C 214.302,211.116 215.144,209.499 215.777,209.499 L 215.777,209.499 z " style="fill:#ff80c2;fill-rule:evenodd;stroke:#000000;stroke-width:0.036;stroke-miterlimit:10" id="path81"/>
</g>
<metadata><rdf:RDF><cc:Work><dc:format>image/svg+xml</dc:format><dc:type rdf:resource="http://purl.org/dc/dcmitype/StillImage"/><cc:license rdf:resource="http://creativecommons.org/licenses/publicdomain/"/><dc:publisher><cc:Agent rdf:about="http://openclipart.org/"><dc:title>Open Clip Art Library</dc:title></cc:Agent></dc:publisher><dc:title>GG cornus canadensis</dc:title><dc:date>2006-09-21T14:30:06</dc:date><dc:description>Colored dogwood flower.</dc:description><dc:source>http://openclipart.org/detail/205/gg-cornus-canadensis-by-gerald_g</dc:source><dc:creator><cc:Agent><dc:title>Gerald_G</dc:title></cc:Agent></dc:creator><dc:subject><rdf:Bag><rdf:li>clip art</rdf:li><rdf:li>clipart</rdf:li><rdf:li>color</rdf:li><rdf:li>flower</rdf:li><rdf:li>nature</rdf:li><rdf:li>outline</rdf:li><rdf:li>plant</rdf:li><rdf:li>wild</rdf:li></rdf:Bag></dc:subject></cc:Work><cc:License rdf:about="http://creativecommons.org/licenses/publicdomain/"><cc:permits rdf:resource="http://creativecommons.org/ns#Reproduction"/><cc:permits rdf:resource="http://creativecommons.org/ns#Distribution"/><cc:permits rdf:resource="http://creativecommons.org/ns#DerivativeWorks"/></cc:License></rdf:RDF></metadata></svg>
